HIERARCHY
ROOT Hips
{
    OFFSET   0.000000   0.000000   0.000000
    CHANNELS 6 Xposition Yposition Zposition Zrotation Xrotation Yrotation
    JOINT Chest
    {
        OFFSET   0.000000   8.007240   0.000000
        CHANNELS 3 Zrotation Xrotation Yrotation
        JOINT Chest2
        {
            OFFSET   0.000000  22.077100   0.000000
            CHANNELS 3 Zrotation Xrotation Yrotation
            JOINT Neck
            {
                OFFSET   0.000000  23.254800   0.000000
                CHANNELS 3 Zrotation Xrotation Yrotation
                JOINT Head
                {
                    OFFSET   0.000000  14.370000   1.956600
                    CHANNELS 3 Zrotation Xrotation Yrotation
                    End Site
                    {
                        OFFSET   0.000000  19.566000   0.000000
                    }
                }
            }
            JOINT LeftCollar
            {
                OFFSET   3.911900  19.017000  -0.467064
                CHANNELS 3 Zrotation Xrotation Yrotation
                JOINT LeftShoulder
                {
                    OFFSET  10.383700   0.000000   0.000000
                    CHANNELS 3 Zrotation Xrotation Yrotation
                    JOINT LeftElbow
                    {
                        OFFSET  26.662100   0.001476   0.000517
                        CHANNELS 3 Zrotation Xrotation Yrotation
                        JOINT LeftWrist
                        {
                            OFFSET  28.869000  -0.000025  -0.000106
                            CHANNELS 3 Zrotation Xrotation Yrotation
                            JOINT LeftFinger0
                            {
                                OFFSET   2.044660  -2.323460   3.252850
                                CHANNELS 3 Zrotation Xrotation Yrotation
                                JOINT LeftFinger01
                                {
                                    OFFSET   3.088130   0.000000   0.000000
                                    CHANNELS 3 Zrotation Xrotation Yrotation
                                    JOINT LeftFinger02
                                    {
                                        OFFSET   2.639460   0.000000   0.000000
                                        CHANNELS 3 Zrotation Xrotation Yrotation
                                        End Site
                                        {
                                            OFFSET   2.582190   0.000000   0.000000
                                        }
                                    }
                                }
                            }
                            JOINT LeftFinger1
                            {
                                OFFSET   8.364480   0.000000   3.252850
                                CHANNELS 3 Zrotation Xrotation Yrotation
                                JOINT LeftFinger11
                                {
                                    OFFSET   4.646930   0.000000   0.000000
                                    CHANNELS 3 Zrotation Xrotation Yrotation
                                    JOINT LeftFinger12
                                    {
                                        OFFSET   2.323460   0.000000   0.000000
                                        CHANNELS 3 Zrotation Xrotation Yrotation
                                        End Site
                                        {
                                            OFFSET   2.273050   0.000000   0.000000
                                        }
                                    }
                                }
                            }
                            JOINT LeftFinger2
                            {
                                OFFSET   8.364490   0.000015   1.078090
                                CHANNELS 3 Zrotation Xrotation Yrotation
                                JOINT LeftFinger21
                                {
                                    OFFSET   5.111620   0.000000   0.000000
                                    CHANNELS 3 Zrotation Xrotation Yrotation
                                    JOINT LeftFinger22
                                    {
                                        OFFSET   2.788160   0.000016   0.000000
                                        CHANNELS 3 Zrotation Xrotation Yrotation
                                        End Site
                                        {
                                            OFFSET   2.727660   0.000000   0.000000
                                        }
                                    }
                                }
                            }
                            JOINT LeftFinger3
                            {
                                OFFSET   7.899780   0.000017  -1.078090
                                CHANNELS 3 Zrotation Xrotation Yrotation
                                JOINT LeftFinger31
                                {
                                    OFFSET   4.646930   0.000000   0.000000
                                    CHANNELS 3 Zrotation Xrotation Yrotation
                                    JOINT LeftFinger32
                                    {
                                        OFFSET   2.323470   0.000000   0.000000
                                        CHANNELS 3 Zrotation Xrotation Yrotation
                                        End Site
                                        {
                                            OFFSET   2.273050   0.000000   0.000000
                                        }
                                    }
                                }
                            }
                            JOINT LeftFinger4
                            {
                                OFFSET   7.435090   0.000000  -3.252850
                                CHANNELS 3 Zrotation Xrotation Yrotation
                                JOINT LeftFinger41
                                {
                                    OFFSET   3.717550   0.000000   0.000000
                                    CHANNELS 3 Zrotation Xrotation Yrotation
                                    JOINT LeftFinger42
                                    {
                                        OFFSET   1.858770   0.000000   0.000000
                                        CHANNELS 3 Zrotation Xrotation Yrotation
                                        End Site
                                        {
                                            OFFSET   1.818440   0.000000   0.000000
                                        }
                                    }
                                }
                            }
                        }
                    }
                }
            }
            JOINT RightCollar
            {
                OFFSET  -3.911900  19.017000  -0.467063
                CHANNELS 3 Zrotation Xrotation Yrotation
                JOINT RightShoulder
                {
                    OFFSET -10.383700   0.000019   0.000000
                    CHANNELS 3 Zrotation Xrotation Yrotation
                    JOINT RightElbow
                    {
                        OFFSET -26.662100   0.001175   0.000102
                        CHANNELS 3 Zrotation Xrotation Yrotation
                        JOINT RightWrist
                        {
                            OFFSET -28.869000   0.000016  -0.000079
                            CHANNELS 3 Zrotation Xrotation Yrotation
                            JOINT RightFinger0
                            {
                                OFFSET  -2.044660  -2.323490   3.252850
                                CHANNELS 3 Zrotation Xrotation Yrotation
                                JOINT RightFinger01
                                {
                                    OFFSET  -3.088140   0.000000   0.000000
                                    CHANNELS 3 Zrotation Xrotation Yrotation
                                    JOINT RightFinger02
                                    {
                                        OFFSET  -2.639460   0.000000   0.000000
                                        CHANNELS 3 Zrotation Xrotation Yrotation
                                        End Site
                                        {
                                            OFFSET  -2.582190   0.000000   0.000000
                                        }
                                    }
                                }
                            }
                            JOINT RightFinger1
                            {
                                OFFSET  -8.364480   0.000000   3.252850
                                CHANNELS 3 Zrotation Xrotation Yrotation
                                JOINT RightFinger11
                                {
                                    OFFSET  -4.646930   0.000000   0.000000
                                    CHANNELS 3 Zrotation Xrotation Yrotation
                                    JOINT RightFinger12
                                    {
                                        OFFSET  -2.323470   0.000000   0.000000
                                        CHANNELS 3 Zrotation Xrotation Yrotation
                                        End Site
                                        {
                                            OFFSET  -2.273050   0.000000   0.000000
                                        }
                                    }
                                }
                            }
                            JOINT RightFinger2
                            {
                                OFFSET  -8.364480   0.000000   1.078090
                                CHANNELS 3 Zrotation Xrotation Yrotation
                                JOINT RightFinger21
                                {
                                    OFFSET  -5.111620   0.000000   0.000000
                                    CHANNELS 3 Zrotation Xrotation Yrotation
                                    JOINT RightFinger22
                                    {
                                        OFFSET  -2.788160   0.000000   0.000000
                                        CHANNELS 3 Zrotation Xrotation Yrotation
                                        End Site
                                        {
                                            OFFSET  -2.727660   0.000000   0.000000
                                        }
                                    }
                                }
                            }
                            JOINT RightFinger3
                            {
                                OFFSET  -7.899780   0.000000  -1.078090
                                CHANNELS 3 Zrotation Xrotation Yrotation
                                JOINT RightFinger31
                                {
                                    OFFSET  -4.646930   0.000000   0.000000
                                    CHANNELS 3 Zrotation Xrotation Yrotation
                                    JOINT RightFinger32
                                    {
                                        OFFSET  -2.323470   0.000000   0.000000
                                        CHANNELS 3 Zrotation Xrotation Yrotation
                                        End Site
                                        {
                                            OFFSET  -2.273050   0.000000   0.000000
                                        }
                                    }
                                }
                            }
                            JOINT RightFinger4
                            {
                                OFFSET  -7.435090   0.000000  -3.252850
                                CHANNELS 3 Zrotation Xrotation Yrotation
                                JOINT RightFinger41
                                {
                                    OFFSET  -3.717550   0.000000   0.000000
                                    CHANNELS 3 Zrotation Xrotation Yrotation
                                    JOINT RightFinger42
                                    {
                                        OFFSET  -1.858770   0.000000   0.000000
                                        CHANNELS 3 Zrotation Xrotation Yrotation
                                        End Site
                                        {
                                            OFFSET  -1.818440   0.000000   0.000000
                                        }
                                    }
                                }
                            }
                        }
                    }
                }
            }
        }
    }
    JOINT LeftHip
    {
        OFFSET   9.783040   0.000000   0.000000
        CHANNELS 3 Zrotation Xrotation Yrotation
        JOINT LeftKnee
        {
            OFFSET   0.000032 -41.789100  -0.002222
            CHANNELS 3 Zrotation Xrotation Yrotation
            JOINT LeftAnkle
            {
                OFFSET   0.000087 -41.133200  -0.000135
                CHANNELS 3 Zrotation Xrotation Yrotation
                JOINT LeftToe
                {
                    OFFSET   0.000000  -6.358960  14.674500
                    CHANNELS 3 Zrotation Xrotation Yrotation
                    End Site
                    {
                        OFFSET   0.000000   0.000000   3.913200
                    }
                }
            }
        }
    }
    JOINT RightHip
    {
        OFFSET  -9.783040   0.000000   0.000000
        CHANNELS 3 Zrotation Xrotation Yrotation
        JOINT RightKnee
        {
            OFFSET   0.000047 -41.789100  -0.000896
            CHANNELS 3 Zrotation Xrotation Yrotation
            JOINT RightAnkle
            {
                OFFSET  -0.000117 -41.133300  -0.000248
                CHANNELS 3 Zrotation Xrotation Yrotation
                JOINT RightToe
                {
                    OFFSET   0.000000  -6.358970  14.674500
                    CHANNELS 3 Zrotation Xrotation Yrotation
                    End Site
                    {
                        OFFSET   0.000000   0.000000   3.913200
                    }
                }
            }
        }
    }
}
MOTION
Frames: 4
Frame Time:   0.016667
  0.131989  89.984400   0.504694  -0.408648   0.321449   1.461380  -0.587198   0.316738  -0.266369  -1.172940   0.636185  -0.529490   2.055590  -0.020710   0.007110   3.376920  -0.041568   3.152330  -1.874660   0.301992   4.402000 -75.136600  15.694500   3.745920  -4.339140  -6.583420 -14.913700  13.517600   5.331400   7.626540  39.156500  30.071500 -70.034500 -24.628100   0.006755   0.003192  -7.314060   0.003958   0.008206 -30.662800   8.119590 -13.399600 -25.869400  -0.001552  -0.002836 -18.108600  -0.005189  -0.010641 -28.780200  -0.969307   1.764380 -41.830700  -0.005234   0.003417 -27.859300  -0.004252   0.000370 -28.436800  -0.958550   1.770250 -35.515700  -0.000229   0.005592 -23.653400  -0.010389   0.001726 -33.427100  -1.109300   1.679910 -50.165100  -0.000685   0.002664 -33.409900  -0.005173  -0.001340   9.652740   3.375510   3.213660  72.432400   8.510660  -1.905360   2.203540  -5.950120  14.592400 -16.845900 -14.091900  -0.171145 -33.689700  29.663600  65.544500  35.958700  -0.000489   0.000486  12.986900   0.010886   0.006666  28.211600   2.712750   5.040680  23.189100  -0.000730   0.007355  16.232500   0.002566   0.004942  27.352900  -2.082860  -4.018730  28.851400  -0.008154   0.000441  19.223700   0.005741   0.002838  28.525500  -2.415200  -4.430310  37.656000  -0.006554  -0.001665  25.078900   0.001995  -0.000990  39.428100  -3.211730  -3.893960  59.306200   0.000811  -0.000112  39.497900  -0.000428   0.012642   0.357193  -1.235020  -0.659610   0.259725   2.172280  14.781900  -5.190980  -2.902390   4.615200   0.000000   0.000000  -0.000000   2.882240  -3.232410  -5.926720  -1.308200   5.750480  -9.324570 -10.680500   0.238037  -2.749820   0.000000   0.000000   0.000000
  0.141914  89.984400   0.512936  -0.408501   0.329432   1.439320  -0.588517   0.325355  -0.263688  -1.175560   0.653401  -0.524037   2.066080  -0.012885   0.007027   3.394420  -0.025950   3.150070  -1.874850   0.305197   4.398780 -75.131800  15.723900   3.721500  -4.336930  -6.595920 -14.929600  13.547400   5.317030   7.604000  39.197800  30.102700 -70.063900 -24.601700   0.006751   0.003171  -7.300890   0.003952   0.008195 -30.673900   8.141220 -13.428100 -25.882200  -0.001530  -0.002805 -18.117600  -0.005192  -0.010619 -28.781300  -0.950973   1.730970 -41.844200  -0.005190   0.003445 -27.868300  -0.004236   0.000401 -28.437800  -0.940488   1.736700 -35.535100  -0.000157   0.005567 -23.666400  -0.010341   0.001753 -33.435200  -1.088930   1.647670 -50.176400  -0.000567   0.002755 -33.417400  -0.005135  -0.001288   9.652990   3.375510   3.199680  72.432300   8.555290  -1.876620   2.195220  -5.924200  14.613100 -16.839200 -14.076800  -0.189226 -33.669200  29.643100  65.567800  35.961700  -0.000506   0.000497  12.986900   0.010875   0.006698  28.214400   2.712750   5.040680  23.188000  -0.000706   0.007335  16.231700   0.002566   0.004931  27.353700  -2.078720  -4.010710  28.851900  -0.008161   0.000417  19.219900   0.005732   0.002811  28.526100  -2.411680  -4.425090  37.669100  -0.006568  -0.001698  25.087700   0.001951  -0.001014  39.433400  -3.206880  -3.889100  59.313800   0.000758  -0.000149  39.502900  -0.000451   0.012632   0.354227  -1.280910  -0.659309   0.253052   2.208720  14.796900  -5.185950  -2.902650   4.626340  -0.000000   0.000000  -0.000000   2.871720  -3.232440  -5.942770  -1.301400   5.744160  -9.341430 -10.680700   0.237931  -2.696970  -0.000000   0.000000   0.000000
  0.158854  89.984200   0.527076  -0.408297   0.337417   1.408620  -0.590769   0.343255  -0.259684  -1.180020   0.689172  -0.515836   2.081580   0.000000   0.006897   3.420310  -0.000230   3.143010  -1.875230   0.311197   4.391950 -75.119800  15.786400   3.663310  -4.328130  -6.617550 -14.956800  13.590100   5.285080   7.578580  39.234500  30.144800 -70.084400 -24.575400   0.006736   0.003140  -7.287710   0.003939   0.008161 -30.684900   8.162840 -13.456600 -25.895100  -0.001485  -0.002732 -18.126500  -0.005204  -0.010569 -28.782400  -0.932637   1.697570 -41.862800  -0.005094   0.003507 -27.880600  -0.004202   0.000470 -28.438800  -0.922425   1.703140 -35.569100   0.000000   0.005516 -23.689000  -0.010267   0.001799 -33.477500  -1.068550   1.615430 -50.238900  -0.000348   0.002945 -33.459100  -0.005060  -0.001182   9.651280   3.375290   3.173350  72.447600   8.636340  -1.832410   2.173340  -5.897970  14.646000 -16.832500 -14.044900  -0.207290 -33.626000  29.612700  65.611600  35.973700  -0.000550   0.000522  12.986900   0.010864   0.006770  28.217100   2.712750   5.040680  23.184400  -0.000650   0.007288  16.229100   0.002564   0.004902  27.355000  -2.071460  -3.996640  28.852900  -0.008182   0.000360  19.216000   0.005707   0.002749  28.526900  -2.406770  -4.417700  37.683100  -0.006600  -0.001770  25.097000   0.001851  -0.001064  39.439000  -3.200010  -3.882380  59.321300   0.000639  -0.000231  39.508000  -0.000502   0.012610   0.348495  -1.326810  -0.659009   0.246106   2.245080  14.818300  -5.177230  -2.902890   4.642870   0.000000   0.000000   0.000000   2.852840  -3.232410  -5.968770  -1.287290   5.732510  -9.377410 -10.681300   0.237831  -2.610120  -0.000000   0.000000  -0.000000
  0.173443  89.984100   0.539112  -0.409480   0.335077   1.396140  -0.593196   0.365227  -0.258180  -1.184800   0.733104  -0.512586   2.091130   0.010039   0.006792   3.436620   0.019751   3.132820  -1.877960   0.314242   4.380770 -75.107300  15.869400   3.591700  -4.316440  -6.626530 -14.985500  13.613100   5.229290   7.574790  39.235600  30.161100 -70.068400 -24.590500   0.006708   0.003122  -7.295270   0.003922   0.008099 -30.682000   8.158910 -13.451900 -25.892100  -0.001423  -0.002622 -18.124400  -0.005232  -0.010506 -28.781400  -0.950089   1.729330 -41.869300  -0.004956   0.003596 -27.885000  -0.004154   0.000570 -28.438000  -0.939675   1.735020 -35.584200   0.000269   0.005451 -23.699100  -0.010219   0.001840 -33.533200  -1.089230   1.645310 -50.323100  -0.000061   0.003203 -33.515200  -0.004962  -0.001043   9.647840   3.359080   3.145920  72.494100   8.718760  -1.799260   2.141300  -5.902310  14.657600 -16.829400 -14.015300  -0.189094 -33.581900  29.597400  65.658900  36.002000  -0.000617   0.000554  12.998800   0.010877   0.006862  28.213800   2.707240   5.032360  23.180200  -0.000572   0.007220  16.226100   0.002558   0.004856  27.355500  -2.067300  -3.988260  28.854400  -0.008216   0.000276  19.216900   0.005664   0.002659  28.527000  -2.405750  -4.416020  37.684000  -0.006647  -0.001872  25.097500   0.001708  -0.001130  39.435600  -3.198430  -3.881030  59.315900   0.000467  -0.000344  39.504400  -0.000572   0.012576   0.341065  -1.281510  -0.660249   0.243552   2.197410  14.827900  -5.169550  -2.901820   4.653360  -0.000000   0.000000  -0.000000   2.835180  -3.220060  -5.987180  -1.269070   5.719480  -9.425080 -10.681700   0.238385  -2.540520   0.000000   0.000000   0.000000
